<?xml version="1.0" encoding="UTF-8"?>
<svg id="Layer_1" xmlns="http://www.w3.org/2000/svg" viewBox="0 0 506.71 79.24">
  <defs>
    <style>
      .cls-1 {
        fill: #6b26d9;
      }

      .cls-2 {
        opacity: .7;
      }
    </style>
  </defs>
  <path class="cls-2" d="M506.71,54.99v5.4h-43.5V1.32q12.28-.21,12.27,11.17c0,11.01,0,22.02,0,34.48h31.23v8.02Z"/>
  <path class="cls-1" d="M54.3,10.88c-3.03,3.43-4.69,5.73-6.95,8.32-.53.61-1.45.74-2.11.27-1.96-1.36-3.83-2.75-5.86-3.85-7.64-4.15-16.85-1.92-22.26,5.23-5.24,6.93-4.77,16.88,1.07,22.96,5.89,6.14,16.5,7.82,22.85,2.91,1.83-1.41,1.96-5.03,3.24-8.69h-18.18v-12.31h29.87c0,5.57.77,10.86,0,16.04-1.89,12.73-3.06,13.54-12.09,17.4-15.82,6.77-32.84.29-40.29-14.25C-2.05,33.93-.99,23.21,6.38,13.46,13.97,3.42,24.17-1.96,36.82.79c6.06,1.32,10.71,5.01,17.06,7.97.81.38,1.02,1.45.42,2.12Z"/>
  <path class="cls-2" d="M371.11,60.06c-9.9,2.43-14.5-3.64-19.07-10.14-4.49-6.4-9.3-12.57-14.03-18.8-1.08-1.42-2.4-2.67-4.45-4.92v33.75h-11.73V1.57c7.2-1.56,12.12.42,16.06,6.64,6.17,9.75,13.16,18.98,20.57,29.51V1.18h12.66v58.88Z"/>
  <path class="cls-2" d="M151.6,52.38c3.51-3.23,6.78-6.25,9.42-8.68,5.73,1.67,11.17,3.32,16.66,4.79,1.23.33,3.94.51,5.23.28,3.11-.56,5.47-1.35,5.56-5.46.09-4.04-3.48-4.14-6.39-4.76-5.66-1.22-11.41-2.2-16.93-3.89-6.79-2.07-11.04-6.76-11.4-14.13-.39-7.84,3.49-13.52,10.19-16.97,9.14-4.72,18.52-4.81,27.71.16,3.04,1.64,5.97,3.49,8.91,5.22-3.08,3.36-5.99,6.53-9.03,9.84-1.55-1.14-2.69-2.04-3.9-2.86-4.58-3.11-9.69-4.01-14.73-1.96-.02,0-.05.02-.07.03-4.08,1.73-3.73,7.84.5,9.18.04.01.08.02.12.04,6.19,1.84,12.8,2.49,18.73,4.89,9.75,3.94,12.4,13.77,6.65,22.69-5.55,8.61-14,11.5-23.74,10.79-8.66-.63-16.19-4.45-23.49-9.18Z"/>
  <path class="cls-2" d="M401.35,60.12h-13.07c2.37-6.56,4.47-12.78,6.84-18.89,4.86-12.5,9.82-24.96,14.89-37.38.43-1.05,1.9-2.21,3-2.35,8.02-.99,8.54-.76,11.64,6.72,7.16,17.28,14.16,34.62,21.39,52.36h-13.75c-.13-.18-.37-.42-.49-.71q-4.28-10.55-15.48-10.49c-.17,0-.33,0-.5,0q-11.24.01-14.48,10.74ZM409.84,37.74h13.82c-2.33-5.83-4.49-11.24-7.19-17.97-2.49,6.74-4.42,11.97-6.63,17.97Z"/>
  <path class="cls-2" d="M219.01,1.48h11.77v58.69h-11.77V1.48Z"/>
  <g>
    <path class="cls-1" d="M104.38,61.6c-16.55-.03-30.5-13.79-30.49-30.08C73.9,14.57,87.97.04,104.35.06c15.89.02,30.12,14.85,30.09,31.36-.03,16.93-13.26,30.21-30.06,30.18ZM121.94,30.88c0-9.64-8.4-18.07-17.83-17.92-9.56.16-17.62,8.45-17.67,18.19-.06,9.78,7.97,18.03,17.62,18.12,9.81.09,17.89-8.22,17.88-18.39Z"/>
    <path class="cls-1" d="M96.02,29.9c-.22,4.98,2.85,8.52,7.53,8.69,4.62.16,8.57-3.26,8.86-7.67.3-4.6-3.46-8.8-8.08-9.03-4.56-.22-8.1,3.19-8.31,8.01Z"/>
    <path class="cls-1" d="M96.02,30.5c.21-4.82,3.75-8.24,8.31-8.01,4.62.23,8.38,4.43,8.08,9.03-.29,4.41-4.24,7.83-8.86,7.67-4.68-.16-7.74-3.7-7.53-8.69Z"/>
  </g>
  <path class="cls-2" d="M304.66,8.97c-4.31,4.72-7.22,7.91-10.32,11.3-2.4-1.6-4.6-3.33-7.02-4.65-7.64-4.15-16.85-1.92-22.26,5.23-5.24,6.93-4.77,16.88,1.07,22.96,5.89,6.14,16.5,7.82,22.85,2.91,1.83-1.41,1.96-5.03,3.24-8.69h-18.18v-12.31h29.87c0,5.57,0,10.8,0,16.04q-.01,12.81-12.09,17.4c-16.09,6.12-32.84.29-40.29-14.25-5.64-10.99-4.57-21.71,2.8-31.46,7.58-10.04,17.79-15.42,30.44-12.67,6.58,1.43,12.67,5.12,19.9,8.17Z"/>
  <rect class="cls-1" x="0" y="73.39" width="134.45" height="5.85" rx="2.93" ry="2.93"/>
</svg>