<svg width="100" height="61" viewBox="0 0 100 61" fill="none" xmlns="http://www.w3.org/2000/svg">
<path d="M40.626 29.4809L41.6931 27.4714C41.7654 27.336 41.8029 27.1846 41.8024 27.0309L41.7876 19.1295C41.7864 18.6128 41.367 18.1945 40.8497 18.1951L38.1863 18.2002C37.6696 18.2013 37.2496 17.783 37.2484 17.2657V17.0074C37.2473 16.77 37.3372 16.5413 37.4988 16.3677L39.3575 14.3719C39.4412 14.2819 39.5066 14.1761 39.5499 14.0611L40.2499 12.1842C40.3557 11.9002 40.3176 11.5821 40.1474 11.3317L37.0572 6.77777C36.796 6.39306 36.8569 5.87518 37.2001 5.5616L37.4681 5.31632C38.0497 4.78421 38.8095 4.48828 39.5982 4.48657C39.9363 4.486 40.2482 4.66755 40.4143 4.96177L41.7665 7.35029L41.7728 7.3611C41.8086 7.42199 41.8741 7.45899 41.9441 7.45899C42.4409 7.56825 42.742 7.10558 42.7841 6.59851L42.8888 5.33738C42.9292 4.85251 43.3338 4.47974 43.8198 4.47861L47.4456 4.47178C47.9623 4.47064 48.3823 4.88893 48.3834 5.40624L48.3857 6.7146C48.3869 7.23135 48.8063 7.64963 49.3236 7.64907C49.7038 7.6485 50.0452 7.41801 50.1886 7.06631L51.0121 5.04657C51.1555 4.69486 51.4976 4.46438 51.8772 4.46381C52.5441 4.46267 53.1861 4.72104 53.6658 5.18429L54.0517 5.55705C54.3658 5.86038 54.4284 6.34013 54.2031 6.71403L51.1151 11.8371C51.0406 11.9611 50.9956 12.1 50.9837 12.2446L50.8994 13.2769L47.3682 13.2809C46.8509 13.2815 46.432 13.7015 46.4331 14.2188L46.4815 40.4873C46.4827 41.0086 46.057 41.4303 45.5357 41.4252L34.9316 41.3142C34.4194 41.3091 34.0063 40.8925 34.0051 40.3797L34 37.7101C34 37.5052 34.0666 37.3055 34.1906 37.1427L38.756 32.8978C38.7856 32.8591 39.176 32.3623 39.2113 32.3287" fill="#55E6A5"/>
<path d="M47.0888 0.00129664L44.9137 0.00547253C44.5391 0.00619181 44.2359 0.310491 44.2367 0.685142L44.2404 2.63943C44.2411 3.01408 44.5454 3.31721 44.9201 3.31649L47.0952 3.31232C47.4698 3.3116 47.773 3.0073 47.7722 2.63265L47.7685 0.678362C47.7678 0.30371 47.4635 0.000577356 47.0888 0.00129664Z" fill="#55E6A5"/>
<path d="M47.8947 41.4338L47.8452 14.6678L51.471 14.661L51.5199 41.4269L47.8947 41.4338ZM50.3054 31.0169L50.2997 27.8539L57.5888 27.8402C58.5915 27.8385 59.4845 27.6319 60.2687 27.2182C61.0523 26.8056 61.6681 26.2263 62.1171 25.479C62.5656 24.7335 62.7887 23.8457 62.7864 22.8173C62.7847 21.789 62.5576 20.9023 62.1063 20.1568C61.655 19.4124 61.0364 18.8354 60.2522 18.425C59.4668 18.0153 58.5733 17.8104 57.5706 17.8127L50.2804 17.8263L50.2747 14.6638L57.7578 14.6496C59.4031 14.6468 60.8822 14.978 62.1945 15.6438C63.5063 16.3103 64.5432 17.2533 65.3052 18.4734C66.065 19.693 66.4474 21.1391 66.4502 22.8105C66.4531 24.4558 66.0764 25.8962 65.3206 27.1323C64.5643 28.3678 63.5313 29.321 62.2213 29.992C60.9106 30.663 59.4332 30.9999 57.788 31.0027L50.3049 31.0169H50.3054Z" fill="white"/>
<path d="M96.393 60.2651C95.6734 60.2651 95.0247 60.1397 94.4469 59.889C93.8691 59.6382 93.3894 59.2675 93.0078 58.7769L94.1526 57.7957C94.4796 58.1773 94.8339 58.4553 95.2155 58.6298C95.608 58.7933 96.0496 58.8751 96.5402 58.8751C96.7364 58.8751 96.9163 58.8533 97.0798 58.8097C97.2543 58.7551 97.4014 58.6788 97.5214 58.5807C97.6522 58.4826 97.7503 58.3681 97.8157 58.2373C97.8811 58.0956 97.9139 57.9429 97.9139 57.7794C97.9139 57.4959 97.8103 57.267 97.6031 57.0925C97.4941 57.0162 97.3197 56.9345 97.0798 56.8472C96.8509 56.7491 96.5511 56.651 96.1804 56.5529C95.5481 56.3893 95.0302 56.204 94.6268 55.9969C94.2234 55.7897 93.9127 55.5553 93.6947 55.2937C93.5311 55.0865 93.4112 54.863 93.3349 54.6232C93.2586 54.3724 93.2204 54.0999 93.2204 53.8055C93.2204 53.4457 93.2967 53.1186 93.4494 52.8243C93.6129 52.519 93.8309 52.2574 94.1035 52.0393C94.387 51.8104 94.714 51.6359 95.0847 51.516C95.4663 51.3961 95.8697 51.3361 96.2949 51.3361C96.6982 51.3361 97.0962 51.3906 97.4887 51.4997C97.892 51.6087 98.2627 51.7668 98.6007 51.9739C98.9387 52.181 99.2221 52.4264 99.4511 52.7098L98.4862 53.7728C98.2791 53.5656 98.0501 53.3858 97.7994 53.2331C97.5595 53.0696 97.3142 52.9442 97.0635 52.857C96.8127 52.7698 96.5838 52.7262 96.3766 52.7262C96.1477 52.7262 95.9405 52.748 95.7552 52.7916C95.5699 52.8352 95.4118 52.9006 95.2809 52.9878C95.161 53.075 95.0684 53.1841 95.0029 53.3149C94.9375 53.4457 94.9048 53.5929 94.9048 53.7564C94.9157 53.8982 94.9484 54.0344 95.0029 54.1653C95.0684 54.2852 95.1556 54.3888 95.2646 54.476C95.3845 54.5632 95.5644 54.6559 95.8043 54.754C96.0441 54.8521 96.3494 54.9448 96.72 55.032C97.2652 55.1737 97.7122 55.3318 98.061 55.5063C98.4208 55.6698 98.7043 55.8606 98.9114 56.0786C99.1295 56.2858 99.2821 56.5256 99.3693 56.7982C99.4565 57.0707 99.5001 57.376 99.5001 57.714C99.5001 58.2046 99.3584 58.6461 99.075 59.0386C98.8024 59.4202 98.4317 59.72 97.9629 59.938C97.4941 60.1561 96.9708 60.2651 96.393 60.2651Z" fill="white"/>
<path d="M88.5678 60.2651C87.8482 60.2651 87.1995 60.1397 86.6217 59.889C86.0439 59.6382 85.5642 59.2675 85.1826 58.7769L86.3274 57.7957C86.6544 58.1773 87.0088 58.4553 87.3903 58.6298C87.7828 58.7933 88.2244 58.8751 88.715 58.8751C88.9112 58.8751 89.0911 58.8533 89.2546 58.8097C89.4291 58.7551 89.5762 58.6788 89.6962 58.5807C89.827 58.4826 89.9251 58.3681 89.9905 58.2373C90.056 58.0956 90.0887 57.9429 90.0887 57.7794C90.0887 57.4959 89.9851 57.267 89.7779 57.0925C89.6689 57.0162 89.4945 56.9345 89.2546 56.8472C89.0257 56.7491 88.7259 56.651 88.3552 56.5529C87.7229 56.3893 87.205 56.204 86.8016 55.9969C86.3982 55.7897 86.0875 55.5553 85.8695 55.2937C85.7059 55.0865 85.586 54.863 85.5097 54.6232C85.4334 54.3724 85.3952 54.0999 85.3952 53.8055C85.3952 53.4457 85.4715 53.1186 85.6242 52.8243C85.7877 52.519 86.0057 52.2574 86.2783 52.0393C86.5618 51.8104 86.8888 51.6359 87.2595 51.516C87.6411 51.3961 88.0445 51.3361 88.4697 51.3361C88.8731 51.3361 89.271 51.3906 89.6635 51.4997C90.0669 51.6087 90.4375 51.7668 90.7755 51.9739C91.1135 52.181 91.3969 52.4264 91.6259 52.7098L90.661 53.7728C90.4539 53.5656 90.2249 53.3858 89.9742 53.2331C89.7343 53.0696 89.489 52.9442 89.2383 52.857C88.9875 52.7698 88.7586 52.7262 88.5514 52.7262C88.3225 52.7262 88.1153 52.748 87.93 52.7916C87.7447 52.8352 87.5866 52.9006 87.4557 52.9878C87.3358 53.075 87.2432 53.1841 87.1777 53.3149C87.1123 53.4457 87.0796 53.5929 87.0796 53.7564C87.0905 53.8982 87.1232 54.0344 87.1777 54.1653C87.2432 54.2852 87.3304 54.3888 87.4394 54.476C87.5593 54.5632 87.7392 54.6559 87.9791 54.754C88.2189 54.8521 88.5242 54.9448 88.8949 55.032C89.44 55.1737 89.887 55.3318 90.2358 55.5063C90.5956 55.6698 90.8791 55.8606 91.0862 56.0786C91.3043 56.2858 91.4569 56.5256 91.5441 56.7982C91.6313 57.0707 91.6749 57.376 91.6749 57.714C91.6749 58.2046 91.5332 58.6461 91.2498 59.0386C90.9772 59.4202 90.6065 59.72 90.1377 59.938C89.6689 60.1561 89.1456 60.2651 88.5678 60.2651Z" fill="white"/>
<path d="M80.1305 60.2651C79.2474 60.2651 78.4624 60.0798 77.7756 59.7091C77.0997 59.3275 76.5654 58.8096 76.173 58.1555C75.7914 57.5014 75.6006 56.7491 75.6006 55.8987C75.6006 55.2228 75.7096 54.6068 75.9277 54.0508C76.1457 53.4948 76.4455 53.0151 76.8271 52.6117C77.2196 52.1974 77.6829 51.8812 78.2171 51.6632C78.7623 51.4342 79.351 51.3198 79.9833 51.3198C80.5393 51.3198 81.0572 51.4288 81.5369 51.6468C82.0166 51.854 82.4309 52.1429 82.7798 52.5136C83.1395 52.8842 83.4121 53.3258 83.5974 53.8382C83.7937 54.3397 83.8863 54.8903 83.8754 55.4899L83.8591 56.2094H76.8435L76.4673 54.8685H82.4036L82.1583 55.1465V54.754C82.1256 54.3942 82.0057 54.0726 81.7986 53.7891C81.5914 53.5057 81.3297 53.2822 81.0136 53.1186C80.6974 52.9551 80.354 52.8733 79.9833 52.8733C79.3946 52.8733 78.8985 52.9878 78.4951 53.2168C78.0918 53.4348 77.7865 53.7619 77.5794 54.198C77.3722 54.6232 77.2686 55.1519 77.2686 55.7843C77.2686 56.3839 77.394 56.9072 77.6448 57.3542C77.8955 57.7903 78.2499 58.1283 78.7077 58.3681C79.1656 58.608 79.6944 58.7279 80.294 58.7279C80.7192 58.7279 81.1117 58.657 81.4715 58.5153C81.8422 58.3736 82.2401 58.1174 82.6653 57.7467L83.5157 58.9405C83.254 59.2021 82.9324 59.4311 82.5508 59.6273C82.1801 59.8236 81.7822 59.9816 81.357 60.1016C80.9427 60.2106 80.5339 60.2651 80.1305 60.2651Z" fill="white"/>
<path d="M66.3979 60.1016V48H68.0824V53.2822L67.788 53.4784C67.897 53.0968 68.1096 52.748 68.4258 52.4318C68.7419 52.1047 69.1181 51.8431 69.5542 51.6468C69.9903 51.4397 70.4373 51.3361 70.8951 51.3361C71.5493 51.3361 72.0944 51.4669 72.5305 51.7286C72.9666 51.9793 73.2937 52.3664 73.5117 52.8897C73.7297 53.413 73.8388 54.0726 73.8388 54.8685V60.1016H72.1544V54.9829C72.1544 54.4923 72.0889 54.0889 71.9581 53.7728C71.8273 53.4457 71.6256 53.2113 71.353 53.0696C71.0805 52.9169 70.7425 52.8515 70.3391 52.8733C70.0121 52.8733 69.7122 52.9278 69.4397 53.0369C69.1671 53.135 68.9273 53.2767 68.7201 53.4621C68.5239 53.6474 68.3658 53.8654 68.2459 54.1162C68.1369 54.356 68.0824 54.6177 68.0824 54.9012V60.1016H67.2483C67.1066 60.1016 66.9649 60.1016 66.8231 60.1016C66.6814 60.1016 66.5397 60.1016 66.3979 60.1016Z" fill="white"/>
<path d="M60.3683 60.2651C59.5724 60.2651 58.842 60.1234 58.1769 59.8399C57.5119 59.5565 56.9341 59.1531 56.4435 58.6298C55.9529 58.0956 55.5713 57.4687 55.2987 56.7491C55.0371 56.0296 54.9062 55.2391 54.9062 54.3779C54.9062 53.5602 55.048 52.8025 55.3314 52.1047C55.6258 51.3961 56.0292 50.7746 56.5416 50.2404C57.054 49.7062 57.6482 49.2919 58.3241 48.9976C59.0001 48.7032 59.7305 48.556 60.5155 48.556C61.0715 48.556 61.6112 48.6432 62.1345 48.8177C62.6687 48.9812 63.1484 49.2156 63.5736 49.5209C64.0097 49.8152 64.364 50.1532 64.6366 50.5348L63.4591 51.7613C63.1429 51.4451 62.8213 51.1835 62.4943 50.9763C62.1781 50.7583 61.851 50.5948 61.5131 50.4857C61.186 50.3767 60.8535 50.3222 60.5155 50.3222C59.9813 50.3222 59.4798 50.4258 59.011 50.6329C58.5531 50.8292 58.1497 51.1072 57.8008 51.4669C57.4628 51.8267 57.1957 52.2574 56.9995 52.7589C56.8033 53.2495 56.7051 53.7891 56.7051 54.3779C56.7051 54.9993 56.7978 55.5662 56.9831 56.0786C57.1794 56.5801 57.4519 57.0108 57.8008 57.3705C58.1497 57.7303 58.564 58.0083 59.0437 58.2046C59.5343 58.3899 60.0739 58.4826 60.6627 58.4826C61.0224 58.4826 61.3768 58.4335 61.7256 58.3354C62.0745 58.2373 62.4016 58.0955 62.7069 57.9102C63.0121 57.7249 63.2901 57.5068 63.5409 57.2561L64.424 58.6952C64.1732 58.9895 63.8298 59.2566 63.3937 59.4965C62.9685 59.7363 62.4888 59.9271 61.9546 60.0689C61.4313 60.1997 60.9025 60.2651 60.3683 60.2651Z" fill="white"/>
<path d="M39.6636 60.1016V48H42.2311V53.184L41.7078 53.3803C41.8277 52.9878 42.0403 52.6335 42.3455 52.3173C42.6617 51.9902 43.0378 51.7286 43.4739 51.5323C43.91 51.3361 44.3679 51.238 44.8476 51.238C45.5018 51.238 46.0523 51.3743 46.4993 51.6468C46.9463 51.9085 47.2843 52.3064 47.5132 52.8406C47.7422 53.3639 47.8567 54.0072 47.8567 54.7703V60.1016H45.2238V54.9829C45.2238 54.6341 45.1747 54.3451 45.0766 54.1162C44.9785 53.8872 44.8258 53.7183 44.6187 53.6092C44.4224 53.4893 44.1771 53.4348 43.8828 53.4457C43.6538 53.4457 43.4412 53.4839 43.245 53.5602C43.0487 53.6256 42.8798 53.7292 42.738 53.8709C42.5963 54.0017 42.4818 54.1544 42.3946 54.3288C42.3183 54.5032 42.2801 54.694 42.2801 54.9012V60.1016H40.9882C40.6829 60.1016 40.4213 60.1016 40.2032 60.1016C39.9852 60.1016 39.8053 60.1016 39.6636 60.1016Z" fill="white"/>
<path d="M34.5624 60.2651C33.7229 60.2651 32.9707 60.0688 32.3056 59.6764C31.6406 59.2839 31.1118 58.7497 30.7193 58.0737C30.3378 57.3869 30.147 56.6128 30.147 55.7515C30.147 54.8902 30.3378 54.1216 30.7193 53.4457C31.1118 52.7588 31.6406 52.2192 32.3056 51.8267C32.9707 51.4342 33.7229 51.238 34.5624 51.238C35.3365 51.238 36.0451 51.3743 36.6884 51.6468C37.3425 51.9194 37.8604 52.301 38.2419 52.7916L36.8192 54.4923C36.6666 54.3179 36.4867 54.1543 36.2795 54.0017C36.0724 53.8491 35.8434 53.7292 35.5927 53.6419C35.3419 53.5547 35.0803 53.5111 34.8077 53.5111C34.3934 53.5111 34.0282 53.6092 33.712 53.8055C33.3959 53.9908 33.1506 54.2525 32.9761 54.5904C32.8017 54.9284 32.7145 55.3154 32.7145 55.7515C32.7145 56.1658 32.8017 56.542 32.9761 56.8799C33.1615 57.2179 33.4122 57.485 33.7284 57.6812C34.0445 57.8775 34.4043 57.9756 34.8077 57.9756C35.0912 57.9756 35.3528 57.9429 35.5927 57.8775C35.8325 57.8012 36.0506 57.6921 36.2468 57.5504C36.454 57.4087 36.6447 57.2342 36.8192 57.0271L38.2256 58.7442C37.8549 59.213 37.337 59.5837 36.672 59.8563C36.0179 60.1288 35.3147 60.2651 34.5624 60.2651Z" fill="white"/>
<path d="M23.1773 60.2487C22.4468 60.2487 21.7927 60.0579 21.2149 59.6764C20.648 59.2839 20.1955 58.7497 19.8575 58.0737C19.5196 57.3869 19.3506 56.6128 19.3506 55.7515C19.3506 54.8684 19.5196 54.0889 19.8575 53.413C20.1955 52.737 20.6589 52.2083 21.2476 51.8267C21.8363 51.4342 22.5068 51.238 23.2591 51.238C23.6734 51.238 24.0495 51.2979 24.3875 51.4179C24.7363 51.5378 25.0416 51.7068 25.3032 51.9248C25.5649 52.132 25.7884 52.3773 25.9737 52.6607C26.1591 52.9333 26.2954 53.2276 26.3826 53.5438L25.8429 53.4784V51.4179H28.4431V60.1016H25.7939V58.0083L26.3826 57.992C26.2954 58.2972 26.1536 58.5861 25.9574 58.8587C25.7611 59.1312 25.5213 59.3711 25.2378 59.5782C24.9544 59.7854 24.6382 59.9489 24.2893 60.0688C23.9405 60.1888 23.5698 60.2487 23.1773 60.2487ZM23.8969 58.041C24.3002 58.041 24.6491 57.9483 24.9435 57.763C25.2378 57.5777 25.4668 57.316 25.6303 56.978C25.7939 56.6292 25.8756 56.2203 25.8756 55.7515C25.8756 55.2827 25.7939 54.8793 25.6303 54.5414C25.4668 54.1925 25.2378 53.9254 24.9435 53.7401C24.6491 53.5438 24.3002 53.4457 23.8969 53.4457C23.5044 53.4457 23.1609 53.5438 22.8666 53.7401C22.5831 53.9254 22.3596 54.1925 22.1961 54.5414C22.0326 54.8793 21.9508 55.2827 21.9508 55.7515C21.9508 56.2203 22.0326 56.6292 22.1961 56.978C22.3596 57.316 22.5831 57.5777 22.8666 57.763C23.1609 57.9483 23.5044 58.041 23.8969 58.041Z" fill="white"/>
<path d="M14.5277 60.2651C13.5683 60.2651 12.7342 60.0743 12.0256 59.6927C11.3169 59.3002 10.7664 58.7715 10.3739 58.1064C9.9814 57.4305 9.78516 56.6619 9.78516 55.8006C9.78516 55.1356 9.89418 54.525 10.1122 53.969C10.3303 53.413 10.6355 52.9333 11.028 52.5299C11.4205 52.1156 11.8839 51.7994 12.4181 51.5814C12.9632 51.3525 13.5574 51.238 14.2006 51.238C14.8111 51.238 15.3671 51.347 15.8686 51.565C16.3811 51.7831 16.8226 52.0884 17.1933 52.4808C17.564 52.8733 17.8474 53.3367 18.0437 53.8709C18.2399 54.4051 18.3271 54.9884 18.3053 55.6207L18.289 56.3239H11.3714L10.9953 54.8521H16.163L15.885 55.1628V54.8357C15.8632 54.5632 15.776 54.3233 15.6233 54.1162C15.4816 53.8981 15.2908 53.7292 15.051 53.6092C14.8111 53.4893 14.5386 53.4293 14.2333 53.4293C13.8081 53.4293 13.4429 53.5166 13.1376 53.691C12.8433 53.8545 12.6198 54.0998 12.4671 54.4269C12.3145 54.7431 12.2382 55.1356 12.2382 55.6044C12.2382 56.0841 12.3363 56.5038 12.5325 56.8636C12.7397 57.2124 13.034 57.485 13.4156 57.6812C13.8081 57.8775 14.2715 57.9756 14.8057 57.9756C15.1763 57.9756 15.5034 57.9211 15.7869 57.8121C16.0812 57.703 16.3974 57.5177 16.7354 57.2561L17.9619 58.9895C17.6239 59.2839 17.2641 59.5237 16.8826 59.7091C16.501 59.8944 16.1085 60.0307 15.7051 60.1179C15.3126 60.216 14.9201 60.2651 14.5277 60.2651Z" fill="white"/>
<path d="M0 60.1015V48.6541H4.93875C5.6583 48.6541 6.29608 48.8176 6.8521 49.1447C7.41902 49.4718 7.86601 49.9188 8.19308 50.4857C8.53106 51.0526 8.70004 51.6904 8.70004 52.3991C8.70004 53.1404 8.53106 53.8055 8.19308 54.3942C7.86601 54.972 7.41902 55.4299 6.8521 55.7679C6.29608 56.1058 5.6583 56.2748 4.93875 56.2748H2.78009V60.1015H0ZM2.73103 53.8382H4.54626C4.78611 53.8382 5.00416 53.7782 5.2004 53.6583C5.39664 53.5383 5.55473 53.3748 5.67465 53.1677C5.79458 52.9605 5.85454 52.7207 5.85454 52.4481C5.85454 52.1647 5.79458 51.9248 5.67465 51.7286C5.55473 51.5323 5.39664 51.3797 5.2004 51.2707C5.00416 51.1616 4.78611 51.1071 4.54626 51.1071H2.73103V53.8382Z" fill="white"/>
</svg>
