<svg width="179" height="206" viewBox="0 0 179 206" fill="none" xmlns="http://www.w3.org/2000/svg">
<path d="M133.005 178.752C128.821 183.881 109.729 186.031 80.5685 178.578C56.2625 172.374 35.6626 160.098 34.4524 153.58C33.908 150.65 35.654 148.77 37.5878 147.618C51.2488 157.881 66.6706 165.203 82.9092 169.353C99.1478 173.504 116.185 174.474 133.101 172.01C134.252 173.943 134.879 176.442 132.991 178.756L133.005 178.752Z" fill="url(#paint0_linear_254_151)"/>
<path style="mix-blend-mode:multiply" d="M114.6 183.397C124.417 183.328 130.781 181.455 133.002 178.739C134.889 176.424 134.253 173.944 133.111 171.992C116.196 174.456 99.1542 173.472 82.9198 169.335C66.6812 165.185 51.2593 157.863 37.5984 147.6C35.6646 148.752 33.9185 150.632 34.4629 153.562C34.9136 155.977 38.011 159.17 42.9773 162.558C54.5226 167.916 69.7951 173.276 86.8504 177.635C96.601 180.12 105.989 182.05 114.614 183.393L114.6 183.397Z" fill="url(#paint1_radial_254_151)"/>
<path d="M135.532 158.549C133.597 151.222 126.53 147.014 126.53 147.014L90.9357 137.925L55.3412 128.836C55.3412 128.836 47.1361 129.147 41.9159 134.647C40.1186 136.557 38.9123 138.578 38.2455 141.191C37.7774 143.006 37.5707 145.089 37.588 147.619C51.2489 157.882 66.6708 165.204 82.9094 169.354C99.1479 173.505 116.185 174.475 133.105 172.024C134.331 169.817 135.155 167.881 135.609 166.07C136.276 163.457 136.189 161.099 135.523 158.567L135.532 158.549Z" fill="url(#paint2_linear_254_151)"/>
<path style="mix-blend-mode:multiply" d="M41.9164 134.647C40.1191 136.557 38.9128 138.578 38.2461 141.191C37.7779 143.006 37.5712 145.089 37.5885 147.619C51.2495 157.882 66.6713 165.204 82.9099 169.354C99.1485 173.505 116.186 174.475 133.106 172.024C134.331 169.817 135.155 167.881 135.61 166.07C136.276 163.457 136.19 161.099 135.523 158.567C133.686 151.618 127.243 147.48 126.593 147.071C101.34 150.716 75.6913 144.159 55.2724 128.857C54.5026 128.906 46.8622 129.441 41.9206 134.661L41.9164 134.647Z" fill="url(#paint3_radial_254_151)"/>
<path d="M124.367 58.8115L111.967 55.6401L99.5664 52.4688C93.896 69.7805 79.0972 108.682 55.2204 128.783C75.6697 144.137 101.382 150.705 126.69 147.043C115.381 117.957 121.047 76.7177 124.38 58.8073L124.367 58.8115Z" fill="url(#paint4_linear_254_151)"/>
<path style="mix-blend-mode:multiply" d="M120.091 96.7823C120.626 81.3686 122.772 67.4045 124.352 58.8148L99.5379 52.4762C96.8144 60.7743 91.9919 74.0604 85.0825 87.835L120.091 96.7823Z" fill="url(#paint5_radial_254_151)"/>
<path d="M126.238 55.4302L113.91 48.3144L113.902 48.2867L113.842 48.2894L113.77 48.2506L113.779 48.2783L99.5314 48.6166C99.5314 48.6166 91.5851 47.3721 90.6031 51.1511C89.2639 56.4098 102.407 62.1654 109.829 63.9286C117.203 65.9327 131.492 67.1963 132.831 61.9376C133.795 58.1489 126.224 55.4344 126.224 55.4344L126.238 55.4302Z" fill="url(#paint6_linear_254_151)"/>
<path d="M113.84 48.2872L113.823 48.278L113.833 48.2609L113.846 48.257L113.84 48.2872Z" fill="url(#paint7_linear_254_151)"/>
<path d="M124.655 5.49512C79.6189 27.5947 95.6285 48.7875 95.6285 48.7875L102.542 56.4664L111.086 58.6488L119.629 60.8311L129.376 57.4028C129.376 57.4028 154.174 46.6367 124.668 5.49098L124.655 5.49512Z" fill="url(#paint8_linear_254_151)"/>
<path d="M132.844 61.9329C131.505 67.1917 117.202 65.9322 109.842 63.9239C102.402 62.151 89.2589 56.3955 90.616 51.1465C91.1216 49.1545 93.5825 48.5543 95.7813 48.4398C95.7189 48.5339 95.6647 48.6558 95.6383 48.7693C94.8562 51.8548 105.539 55.9924 111.508 57.436C117.431 59.029 128.799 60.5173 129.586 57.4457C129.612 57.3322 129.634 57.2048 129.615 57.0899C131.5 58.2462 133.363 59.9369 132.848 61.9468L132.844 61.9329Z" fill="url(#paint9_linear_254_151)"/>
<path d="M127.129 10.3386C128.06 10.2715 128.736 9.85808 129.022 8.74654C129.596 6.47775 128.38 2.05864 125.667 1.36131C122.953 0.66399 119.759 3.95791 119.186 6.22669C118.899 7.33823 119.289 8.03639 120.083 8.52303L127.139 10.3206L127.129 10.3386Z" fill="url(#paint10_linear_254_151)"/>
<path style="mix-blend-mode:multiply" opacity="0.63" d="M120.149 22.9702C128.87 25.19 133.506 36.9598 131.216 49.9864C131.548 49.0272 131.844 48.0486 132.099 47.0367C135.729 32.8399 131.058 19.3906 121.67 17.0083C112.282 14.6259 101.74 24.1759 98.1243 38.3686C97.8687 39.3805 97.6546 40.3799 97.4863 41.3808C101.732 28.8404 111.442 20.7462 120.149 22.9702Z" fill="url(#paint11_radial_254_151)"/>
<defs>
<linearGradient id="paint0_linear_254_151" x1="41.9645" y1="158.767" x2="130.058" y2="181.269" gradientUnits="userSpaceOnUse">
<stop stop-color="#F4F3F2"/>
<stop offset="0.37" stop-color="#EEEBEA"/>
<stop offset="0.56" stop-color="#EAE6E4"/>
<stop offset="1" stop-color="#D1CFCD"/>
</linearGradient>
<radialGradient id="paint1_radial_254_151" cx="0" cy="0" r="1" gradientUnits="userSpaceOnUse" gradientTransform="translate(90.7388 162.254) rotate(14.329) scale(72.1307 15.8688)">
<stop stop-color="#A6A6A6"/>
<stop offset="0.03" stop-color="#AAAAAA"/>
<stop offset="0.31" stop-color="#CECECE"/>
<stop offset="0.58" stop-color="#E9E9E9"/>
<stop offset="0.82" stop-color="#F9F9F9"/>
<stop offset="1" stop-color="white"/>
</radialGradient>
<linearGradient id="paint2_linear_254_151" x1="29.6893" y1="139.072" x2="125.892" y2="163.646" gradientUnits="userSpaceOnUse">
<stop stop-color="#F4F3F2"/>
<stop offset="0.37" stop-color="#EEEBEA"/>
<stop offset="0.56" stop-color="#EAE6E4"/>
<stop offset="1" stop-color="#D1CFCD"/>
</linearGradient>
<radialGradient id="paint3_radial_254_151" cx="0" cy="0" r="1" gradientUnits="userSpaceOnUse" gradientTransform="translate(86.1825 137.05) rotate(14.569) scale(61.2894 25.7415)">
<stop stop-color="#A6A6A6"/>
<stop offset="0.11" stop-color="#B7B7B7"/>
<stop offset="0.35" stop-color="#D6D6D6"/>
<stop offset="0.58" stop-color="#ECECEC"/>
<stop offset="0.8" stop-color="#FAFAFA"/>
<stop offset="1" stop-color="white"/>
</radialGradient>
<linearGradient id="paint4_linear_254_151" x1="72.5458" y1="93.2531" x2="111.565" y2="103.22" gradientUnits="userSpaceOnUse">
<stop stop-color="#F4F3F2"/>
<stop offset="0.37" stop-color="#EEEBEA"/>
<stop offset="0.56" stop-color="#EAE6E4"/>
<stop offset="1" stop-color="#D1CFCD"/>
</linearGradient>
<radialGradient id="paint5_radial_254_151" cx="0" cy="0" r="1" gradientUnits="userSpaceOnUse" gradientTransform="translate(111.438 59.8544) rotate(14.329) scale(29.9509 16.473)">
<stop stop-color="#A6A6A6"/>
<stop offset="0.03" stop-color="#AAAAAA"/>
<stop offset="0.31" stop-color="#CECECE"/>
<stop offset="0.58" stop-color="#E9E9E9"/>
<stop offset="0.82" stop-color="#F9F9F9"/>
<stop offset="1" stop-color="white"/>
</radialGradient>
<linearGradient id="paint6_linear_254_151" x1="90.654" y1="50.7485" x2="132.894" y2="61.5381" gradientUnits="userSpaceOnUse">
<stop stop-color="#F4F3F2"/>
<stop offset="0.37" stop-color="#EEEBEA"/>
<stop offset="0.56" stop-color="#EAE6E4"/>
<stop offset="1" stop-color="#D1CFCD"/>
</linearGradient>
<linearGradient id="paint7_linear_254_151" x1="113.762" y1="48.3075" x2="113.775" y2="48.3109" gradientUnits="userSpaceOnUse">
<stop stop-color="#F9F9F9"/>
<stop offset="0.43" stop-color="#F5F4F4"/>
<stop offset="0.92" stop-color="#ECE8E6"/>
<stop offset="1" stop-color="#EAE6E4"/>
</linearGradient>
<linearGradient id="paint8_linear_254_151" x1="102.2" y1="24.292" x2="135.496" y2="44.0462" gradientUnits="userSpaceOnUse">
<stop stop-color="#F4F3F2"/>
<stop offset="0.37" stop-color="#EEEBEA"/>
<stop offset="0.56" stop-color="#EAE6E4"/>
<stop offset="1" stop-color="#D1CFCD"/>
</linearGradient>
<linearGradient id="paint9_linear_254_151" x1="95.8579" y1="42.1115" x2="126.323" y2="70.5563" gradientUnits="userSpaceOnUse">
<stop stop-color="#F4F3F2"/>
<stop offset="0.37" stop-color="#EEEBEA"/>
<stop offset="0.56" stop-color="#EAE6E4"/>
<stop offset="1" stop-color="#D1CFCD"/>
</linearGradient>
<linearGradient id="paint10_linear_254_151" x1="121.131" y1="3.91524" x2="128.384" y2="8.2295" gradientUnits="userSpaceOnUse">
<stop stop-color="#F4F3F2"/>
<stop offset="0.37" stop-color="#EEEBEA"/>
<stop offset="0.56" stop-color="#EAE6E4"/>
<stop offset="1" stop-color="#D1CFCD"/>
</linearGradient>
<radialGradient id="paint11_radial_254_151" cx="0" cy="0" r="1" gradientUnits="userSpaceOnUse" gradientTransform="translate(115.922 38.031) rotate(14.3289) scale(16.2186 20.4354)">
<stop/>
<stop offset="0.09" stop-color="#0A0A0A"/>
<stop offset="0.23" stop-color="#252525"/>
<stop offset="0.42" stop-color="#525252"/>
<stop offset="0.65" stop-color="#909090"/>
<stop offset="0.9" stop-color="#DFDFDF"/>
<stop offset="1" stop-color="white"/>
</radialGradient>
</defs>
</svg>
