<svg width="133" height="278" viewBox="0 0 133 278" fill="none" xmlns="http://www.w3.org/2000/svg">
<path d="M132.259 261.41C128.609 269.15 105.339 277.76 66.4686 277.48C34.0786 277.25 4.44856 268.26 0.908555 260.47C-0.681445 256.96 0.908572 254.06 2.98857 252.02C2.98857 252.02 2.98857 252.027 2.98857 252.04C23.2986 260.66 44.9086 265.05 66.5486 265.21C88.1886 265.37 109.849 261.29 130.289 252.96C130.289 252.96 130.289 252.953 130.289 252.94C132.329 255.02 133.889 257.94 132.249 261.42L132.259 261.41Z" fill="url(#paint0_linear_254_135)"/>
<path style="mix-blend-mode:multiply" d="M110.639 272.96C122.919 269.83 130.319 265.5 132.249 261.41C133.889 257.92 132.329 255 130.289 252.93C130.289 252.93 130.289 252.937 130.289 252.95C109.849 261.28 88.1888 265.36 66.5488 265.2C44.9088 265.04 23.3088 260.65 2.98879 252.03C2.98879 252.03 2.98879 252.023 2.98879 252.01C0.918795 254.06 -0.681222 256.95 0.908778 260.46C2.21878 263.34 7.10881 266.39 14.3788 269.09C30.5188 272.23 51.3288 274.19 74.0488 274.36C87.0388 274.45 99.4088 273.95 110.649 272.96H110.639Z" fill="url(#paint1_radial_254_135)"/>
<path d="M129.159 235.31C124.449 226.72 114.299 223.64 114.299 223.64L66.8591 223.3L19.4191 222.96C19.4191 222.96 9.2191 225.9 4.3891 234.41C2.7191 237.36 1.83909 240.28 1.81909 243.76C1.79909 246.17 2.18908 248.86 2.99908 252.02C23.3091 260.64 44.9191 265.03 66.5591 265.19C88.1991 265.35 109.869 261.27 130.299 252.94C131.149 249.79 131.579 247.11 131.599 244.7C131.629 241.21 130.789 238.29 129.159 235.31Z" fill="url(#paint2_linear_254_135)"/>
<path style="mix-blend-mode:multiply" d="M4.3891 234.41C2.7191 237.36 1.83909 240.28 1.81909 243.76C1.79909 246.17 2.18908 248.86 2.99908 252.02C23.3091 260.64 44.9191 265.03 66.5591 265.19C88.1991 265.35 109.869 261.27 130.299 252.94C131.149 249.79 131.579 247.11 131.599 244.7C131.629 241.21 130.789 238.29 129.159 235.31C124.699 227.17 115.339 223.98 114.389 223.67C83.8691 236.07 49.6691 235.83 19.3391 222.99C18.3891 223.28 8.97905 226.34 4.39905 234.42L4.3891 234.41Z" fill="url(#paint3_radial_254_135)"/>
<path d="M84.1788 113.76L67.6388 113.64L51.0988 113.52C49.3688 136.98 42.8988 190.33 19.2188 222.94C49.6087 235.84 83.8988 236.08 114.469 223.63C91.2588 190.68 85.5588 137.24 84.1688 113.76H84.1788Z" fill="url(#paint4_linear_254_135)"/>
<path style="mix-blend-mode:multiply" d="M90.6188 162.67C86.5088 143.18 84.8488 125.02 84.1788 113.76L51.1088 113.52C50.2788 124.77 48.3587 142.91 43.9688 162.34L90.6188 162.68V162.67Z" fill="url(#paint5_radial_254_135)"/>
<path d="M85.4781 108.94L67.8081 103.85V103.8L67.7181 103.83L67.6282 103.8V103.85L49.8882 108.69C49.8882 108.69 39.5281 109.6 39.4981 114.64C39.4481 121.65 57.7082 124.77 67.5782 124.68C77.4382 124.91 95.7481 122.05 95.7981 115.04C95.8381 109.99 85.4881 108.94 85.4881 108.94H85.4781Z" fill="url(#paint6_linear_254_135)"/>
<path d="M67.6672 103.782L67.667 103.812L67.687 103.812L67.6872 103.782L67.6672 103.782Z" fill="url(#paint7_linear_254_135)"/>
<path d="M95.7786 115.04C95.7286 122.04 77.4186 124.91 67.5586 124.68C57.6886 124.77 39.4286 121.64 39.4786 114.64C39.4986 111.98 42.3886 110.47 45.1186 109.65C45.0686 109.8 45.0386 109.95 45.0386 110.11C45.0086 114.21 59.6986 116.08 67.6186 116.04C75.5386 116.19 90.2486 114.54 90.2786 110.43C90.2786 110.27 90.2586 110.12 90.2086 109.97C92.9286 110.83 95.7886 112.38 95.7686 115.04H95.7786Z" fill="url(#paint8_linear_254_135)"/>
<path d="M90.0588 15.61L72.2488 17.89L74.7888 0.0899963L62.1389 0L64.4088 17.83L46.6389 15.3L46.5488 27.95L63.7288 25.76L60.2288 56.39L75.8788 56.51L72.8188 25.82L89.9688 28.27L90.0588 15.61Z" fill="url(#paint9_linear_254_135)"/>
<path style="mix-blend-mode:multiply" d="M62.4285 37.12L60.2285 56.39L75.8785 56.51L73.9585 37.2L62.4285 37.12Z" fill="url(#paint10_linear_254_135)"/>
<path d="M93.3489 57.15C88.4089 54.26 78.9489 52.26 68.0889 52.19C57.2289 52.11 47.7389 53.97 42.7589 56.79C40.2189 58.23 39.0089 61.23 39.7589 64.05L51.5589 108.7C61.7689 113.43 73.5289 113.52 83.8089 108.93L96.2489 64.45C97.0389 61.64 95.8689 58.62 93.3489 57.14V57.15Z" fill="url(#paint11_linear_254_135)"/>
<defs>
<linearGradient id="paint0_linear_254_135" x1="12.0182" y1="264.524" x2="129.435" y2="265.364" gradientUnits="userSpaceOnUse">
<stop stop-color="#F4F3F2"/>
<stop offset="0.37" stop-color="#EEEBEA"/>
<stop offset="0.56" stop-color="#EAE6E4"/>
<stop offset="1" stop-color="#D1CFCD"/>
</linearGradient>
<radialGradient id="paint1_radial_254_135" cx="0" cy="0" r="1" gradientUnits="userSpaceOnUse" gradientTransform="translate(74.1837 251.87) rotate(0.409999) scale(93.12 20.4864)">
<stop stop-color="#A6A6A6"/>
<stop offset="0.03" stop-color="#AAAAAA"/>
<stop offset="0.31" stop-color="#CECECE"/>
<stop offset="0.58" stop-color="#E9E9E9"/>
<stop offset="0.82" stop-color="#F9F9F9"/>
<stop offset="1" stop-color="white"/>
</radialGradient>
<linearGradient id="paint2_linear_254_135" x1="-9.49245" y1="243.65" x2="118.734" y2="244.567" gradientUnits="userSpaceOnUse">
<stop stop-color="#F4F3F2"/>
<stop offset="0.37" stop-color="#EEEBEA"/>
<stop offset="0.56" stop-color="#EAE6E4"/>
<stop offset="1" stop-color="#D1CFCD"/>
</linearGradient>
<radialGradient id="paint3_radial_254_135" cx="0" cy="0" r="1" gradientUnits="userSpaceOnUse" gradientTransform="translate(66.5256 221.902) rotate(0.66) scale(79.15 33.243)">
<stop stop-color="#A6A6A6"/>
<stop offset="0.11" stop-color="#B7B7B7"/>
<stop offset="0.35" stop-color="#D6D6D6"/>
<stop offset="0.58" stop-color="#ECECEC"/>
<stop offset="0.8" stop-color="#FAFAFA"/>
<stop offset="1" stop-color="white"/>
</radialGradient>
<linearGradient id="paint4_linear_254_135" x1="30.0045" y1="172.9" x2="81.9932" y2="173.272" gradientUnits="userSpaceOnUse">
<stop stop-color="#F4F3F2"/>
<stop offset="0.37" stop-color="#EEEBEA"/>
<stop offset="0.56" stop-color="#EAE6E4"/>
<stop offset="1" stop-color="#D1CFCD"/>
</linearGradient>
<radialGradient id="paint5_radial_254_135" cx="0" cy="0" r="1" gradientUnits="userSpaceOnUse" gradientTransform="translate(68.3384 119.005) rotate(0.41) scale(38.68 21.274)">
<stop stop-color="#A6A6A6"/>
<stop offset="0.03" stop-color="#AAAAAA"/>
<stop offset="0.31" stop-color="#CECECE"/>
<stop offset="0.58" stop-color="#E9E9E9"/>
<stop offset="0.82" stop-color="#F9F9F9"/>
<stop offset="1" stop-color="white"/>
</radialGradient>
<linearGradient id="paint6_linear_254_135" x1="39.4857" y1="113.987" x2="95.7742" y2="114.39" gradientUnits="userSpaceOnUse">
<stop stop-color="#F4F3F2"/>
<stop offset="0.37" stop-color="#EEEBEA"/>
<stop offset="0.56" stop-color="#EAE6E4"/>
<stop offset="1" stop-color="#D1CFCD"/>
</linearGradient>
<linearGradient id="paint7_linear_254_135" x1="67.6448" y1="103.783" x2="67.6648" y2="103.784" gradientUnits="userSpaceOnUse">
<stop stop-color="#F9F9F9"/>
<stop offset="0.43" stop-color="#F5F4F4"/>
<stop offset="0.92" stop-color="#ECE8E6"/>
<stop offset="1" stop-color="#EAE6E4"/>
</linearGradient>
<linearGradient id="paint8_linear_254_135" x1="43.3152" y1="101.564" x2="90.349" y2="127.751" gradientUnits="userSpaceOnUse">
<stop stop-color="#F4F3F2"/>
<stop offset="0.37" stop-color="#EEEBEA"/>
<stop offset="0.56" stop-color="#EAE6E4"/>
<stop offset="1" stop-color="#D1CFCD"/>
</linearGradient>
<linearGradient id="paint9_linear_254_135" x1="29.7699" y1="-5.32579" x2="79.0081" y2="38.4277" gradientUnits="userSpaceOnUse">
<stop stop-color="#F9F9F9"/>
<stop offset="0.49" stop-color="#EFEDEC"/>
<stop offset="1" stop-color="#EAE6E4"/>
</linearGradient>
<linearGradient id="paint10_linear_254_135" x1="68.0096" y1="60.4995" x2="68.1253" y2="44.3299" gradientUnits="userSpaceOnUse">
<stop stop-color="#A6A6A6"/>
<stop offset="0.03" stop-color="#AAAAAA"/>
<stop offset="0.31" stop-color="#CECECE"/>
<stop offset="0.58" stop-color="#E9E9E9"/>
<stop offset="0.82" stop-color="#F9F9F9"/>
<stop offset="1" stop-color="white"/>
</linearGradient>
<linearGradient id="paint11_linear_254_135" x1="40.3291" y1="73.0918" x2="85.2835" y2="86.6238" gradientUnits="userSpaceOnUse">
<stop stop-color="#F4F3F2"/>
<stop offset="0.37" stop-color="#EEEBEA"/>
<stop offset="0.56" stop-color="#EAE6E4"/>
<stop offset="1" stop-color="#D1CFCD"/>
</linearGradient>
</defs>
</svg>
