<svg width="123" height="173" viewBox="0 0 123 173" fill="none" xmlns="http://www.w3.org/2000/svg">
<path d="M23.6088 150.693C23.2687 153.281 23.4954 155.624 24.4966 158.118C25.1767 159.856 26.2537 161.65 27.7462 163.691C44.7676 163.955 61.4866 160.8 76.9967 154.623C92.5068 148.445 106.808 139.226 118.993 127.343C118.691 124.849 118.218 122.809 117.519 121.071C116.518 118.577 115.082 116.726 113.042 115.063C107.488 110.529 99.8744 110.983 99.0999 111.04C80.8883 128.779 56.367 138.527 30.9577 138.168C30.3531 138.659 24.5345 143.571 23.5899 150.674L23.6088 150.693Z" fill="url(#paint0_linear_254_106)"/>
<path d="M122.847 132.822C122.488 139.415 108.357 152.337 80.4917 163.426C57.2738 172.664 33.4704 174.856 28.6908 170.322C26.5372 168.281 26.8394 165.731 27.7273 163.672C44.7487 163.936 61.4678 160.8 76.9778 154.623C92.4879 148.445 106.789 139.226 118.974 127.343C121.033 128.231 122.998 129.874 122.847 132.84V132.822Z" fill="url(#paint1_linear_254_106)"/>
<path style="mix-blend-mode:multiply" d="M110.756 147.368C118.615 141.55 122.658 136.317 122.847 132.822C123.017 129.856 121.052 128.212 118.974 127.324C106.789 139.226 92.4879 148.426 76.9778 154.604C61.4678 160.781 44.7487 163.917 27.7273 163.653C26.8394 165.712 26.5372 168.263 28.6908 170.303C30.4666 171.984 34.8494 172.74 40.8191 172.551C53.2688 170.095 68.7222 165.467 85.0068 158.968C94.3204 155.265 103.011 151.298 110.756 147.331V147.368Z" fill="url(#paint2_radial_254_106)"/>
<path style="mix-blend-mode:multiply" d="M113.061 115.082C107.204 110.321 99.043 111.058 99.043 111.058L65.038 124.604L31.033 138.149C31.033 138.149 24.5908 143.212 23.6273 150.693C23.2873 153.281 23.5139 155.624 24.5152 158.117C25.1953 159.855 26.2723 161.65 27.7647 163.69C44.7861 163.955 61.5052 160.8 77.0153 154.622C92.5253 148.445 106.826 139.245 119.011 127.343C118.709 124.849 118.237 122.809 117.538 121.071C116.537 118.577 115.101 116.726 113.061 115.063V115.082Z" fill="url(#paint3_radial_254_106)"/>
<path d="M45.5799 41.2535L33.7348 45.9764L21.8896 50.6993C27.4627 67.9663 38.3443 107.998 30.901 138.187C56.367 138.565 80.9451 128.779 99.1945 111.002C73.0295 94.188 53.42 57.6515 45.5988 41.2724L45.5799 41.2535Z" fill="url(#paint4_linear_254_106)"/>
<path style="mix-blend-mode:multiply" d="M64.3961 74.3517C55.8003 61.6187 49.3395 49.1124 45.58 41.2535L21.8711 50.6993C24.5537 58.9928 28.4453 72.5003 30.9579 87.6703L64.3961 74.3517Z" fill="url(#paint5_radial_254_106)"/>
<path d="M45.1076 37.4374L30.9955 38.9299V38.8921L30.9199 38.9299H30.8445V38.9676L19.566 47.5822C19.566 47.5822 12.4249 51.2472 13.8607 54.8556C15.8632 59.8807 29.8242 56.8014 36.8519 53.8732C43.9741 51.1717 56.216 43.8039 54.2135 38.7787C52.7777 35.1704 45.0698 37.4185 45.0698 37.4185L45.1076 37.4374Z" fill="url(#paint6_linear_254_106)"/>
<path d="M54.251 38.7978C56.2535 43.8229 43.9929 51.1907 36.8897 53.8922C29.862 56.8204 15.9009 59.8998 13.8984 54.8746C13.1427 52.9665 14.7674 51.0585 16.4677 49.6605C16.4677 49.7738 16.5055 49.9061 16.5433 50.0194C17.7146 52.9665 28.7472 50.0194 34.4148 47.6957C40.12 45.5043 50.1517 40.0446 48.9804 37.0975C48.9426 36.9841 48.8671 36.8708 48.7915 36.7952C50.983 36.6252 53.4765 36.8897 54.251 38.7978Z" fill="url(#paint7_linear_254_106)"/>
<path style="mix-blend-mode:multiply" d="M52.1915 37.0031C50.9446 33.8482 41.3098 34.7361 30.6738 38.9678C20.0378 43.1995 12.4434 49.1882 13.7091 52.3242C14.9748 55.4602 24.2884 53.8356 34.9244 49.6038C45.5604 45.3721 53.4572 40.1391 52.1915 36.9842V37.0031Z" fill="url(#paint8_radial_254_106)"/>
<path d="M48.6022 15.882C43.4637 2.96007 28.8038 -3.34977 15.8819 1.78877C2.95999 6.92731 -3.34976 21.5873 1.78878 34.5092C6.92732 47.4311 20.3592 50.6616 33.2811 45.523C46.203 40.3845 53.7407 28.8039 48.5833 15.882H48.6022Z" fill="url(#paint9_radial_254_106)"/>
<defs>
<linearGradient id="paint0_linear_254_106" x1="22.0463" y1="104.086" x2="92.0702" y2="155.246" gradientUnits="userSpaceOnUse">
<stop stop-color="#F4F3F2"/>
<stop offset="0.37" stop-color="#EEEBEA"/>
<stop offset="0.56" stop-color="#EAE6E4"/>
<stop offset="1" stop-color="#D1CFCD"/>
</linearGradient>
<linearGradient id="paint1_linear_254_106" x1="31.9134" y1="134.989" x2="101.478" y2="158.425" gradientUnits="userSpaceOnUse">
<stop stop-color="#F4F3F2"/>
<stop offset="0.37" stop-color="#EEEBEA"/>
<stop offset="0.56" stop-color="#EAE6E4"/>
<stop offset="1" stop-color="#D1CFCD"/>
</linearGradient>
<radialGradient id="paint2_radial_254_106" cx="0" cy="0" r="1" gradientUnits="userSpaceOnUse" gradientTransform="translate(78.3189 142.311) rotate(-21.71) scale(71.845 15.8059)">
<stop stop-color="#A6A6A6"/>
<stop offset="0.03" stop-color="#AAAAAA"/>
<stop offset="0.31" stop-color="#CECECE"/>
<stop offset="0.58" stop-color="#E9E9E9"/>
<stop offset="0.82" stop-color="#F9F9F9"/>
<stop offset="1" stop-color="white"/>
</radialGradient>
<radialGradient id="paint3_radial_254_106" cx="0" cy="0" r="1" gradientUnits="userSpaceOnUse" gradientTransform="translate(71.0443 121.963) rotate(-21.71) scale(63.7972 16.5873)">
<stop stop-color="#A6A6A6"/>
<stop offset="0.11" stop-color="#B7B7B7"/>
<stop offset="0.35" stop-color="#D6D6D6"/>
<stop offset="0.58" stop-color="#ECECEC"/>
<stop offset="0.8" stop-color="#FAFAFA"/>
<stop offset="1" stop-color="white"/>
</radialGradient>
<linearGradient id="paint4_linear_254_106" x1="9.68688" y1="85.0578" x2="94.2995" y2="98.9787" gradientUnits="userSpaceOnUse">
<stop stop-color="#F4F3F2"/>
<stop offset="0.37" stop-color="#EEEBEA"/>
<stop offset="0.56" stop-color="#EAE6E4"/>
<stop offset="1" stop-color="#D1CFCD"/>
</linearGradient>
<radialGradient id="paint5_radial_254_106" cx="0" cy="0" r="1" gradientUnits="userSpaceOnUse" gradientTransform="translate(35.6995 49.4739) rotate(-21.7101) scale(29.8487 16.4169)">
<stop stop-color="#A6A6A6"/>
<stop offset="0.03" stop-color="#AAAAAA"/>
<stop offset="0.31" stop-color="#CECECE"/>
<stop offset="0.58" stop-color="#E9E9E9"/>
<stop offset="0.82" stop-color="#F9F9F9"/>
<stop offset="1" stop-color="white"/>
</radialGradient>
<linearGradient id="paint6_linear_254_106" x1="46.9585" y1="53.1149" x2="14.7823" y2="37.6207" gradientUnits="userSpaceOnUse">
<stop stop-color="#F4F3F2"/>
<stop offset="0.37" stop-color="#EEEBEA"/>
<stop offset="0.56" stop-color="#EAE6E4"/>
<stop offset="1" stop-color="#D1CFCD"/>
</linearGradient>
<linearGradient id="paint7_linear_254_106" x1="-35.3742" y1="30.4298" x2="42.1298" y2="48.9407" gradientUnits="userSpaceOnUse">
<stop stop-color="#F4F3F2"/>
<stop offset="0.37" stop-color="#EEEBEA"/>
<stop offset="0.56" stop-color="#EAE6E4"/>
<stop offset="1" stop-color="#D1CFCD"/>
</linearGradient>
<radialGradient id="paint8_radial_254_106" cx="0" cy="0" r="1" gradientUnits="userSpaceOnUse" gradientTransform="translate(34.9328 49.908) rotate(-21.71) scale(20.0441 6.01322)">
<stop stop-color="#262626"/>
<stop offset="0.12" stop-color="#494949"/>
<stop offset="0.35" stop-color="#898989"/>
<stop offset="0.57" stop-color="#BBBBBB"/>
<stop offset="0.75" stop-color="#E0E0E0"/>
<stop offset="0.9" stop-color="#F6F6F6"/>
<stop offset="1" stop-color="white"/>
</radialGradient>
<radialGradient id="paint9_radial_254_106" cx="0" cy="0" r="1" gradientUnits="userSpaceOnUse" gradientTransform="translate(14.2724 20.6618) rotate(-21.7101) scale(34.5339 34.534)">
<stop stop-color="#F4F3F2"/>
<stop offset="0.37" stop-color="#EEEBEA"/>
<stop offset="0.56" stop-color="#EAE6E4"/>
<stop offset="1" stop-color="#D1CFCD"/>
</radialGradient>
</defs>
</svg>
