<svg width="286" height="278" viewBox="0 0 286 278" fill="none" xmlns="http://www.w3.org/2000/svg">
<path d="M52.092 161.046C49.3513 163.134 47.3815 165.5 45.9783 168.742C44.9981 170.985 44.2917 173.638 43.7935 176.914C59.3013 193.027 77.7041 205.706 97.8037 214.453C117.903 223.199 139.725 228.016 162.09 228.367C164.128 225.762 165.599 223.438 166.579 221.196C167.983 217.954 168.375 214.898 168.047 211.48C167.132 202.117 159.665 195.408 158.902 194.755C125.524 194.179 93.754 180.357 70.5786 156.329C69.5664 156.216 59.5838 155.326 52.1064 161.034L52.092 161.046Z" fill="url(#paint0_linear_254_119)"/>
<path style="mix-blend-mode:multiply" d="M160.554 237.048C154.07 242.815 128.958 241.577 92.8502 225.866C62.7559 212.773 38.7103 192.611 38.5012 183.947C38.4154 180.039 41.0617 177.978 43.7951 176.888C59.303 193.001 77.6913 205.692 97.8053 214.427C117.905 223.174 139.727 227.99 162.091 228.341C163.166 231.086 163.464 234.435 160.543 237.034L160.554 237.048Z" fill="url(#paint1_linear_254_119)"/>
<path style="mix-blend-mode:multiply" d="M135.811 239.22C148.504 241.188 157.123 240.09 160.554 237.048C163.475 234.449 163.188 231.114 162.102 228.355C139.738 228.005 117.916 223.188 97.8161 214.441C77.7164 205.695 59.3137 193.015 43.8059 176.903C41.0725 177.992 38.426 180.053 38.5119 183.961C38.5813 187.165 41.9359 191.946 47.6286 197.356C61.4193 206.696 80.0378 216.804 101.148 225.988C113.213 231.242 124.948 235.688 135.822 239.235L135.811 239.22Z" fill="url(#paint2_radial_254_119)"/>
<path style="mix-blend-mode:multiply" d="M168.03 211.491C167.063 201.615 158.815 194.705 158.815 194.705L114.734 175.522L70.6533 156.338C70.6533 156.338 59.9845 155.012 52.09 161.045C49.3493 163.134 47.3795 165.5 45.9763 168.742C44.9961 170.985 44.2897 173.638 43.7915 176.914C59.2993 193.027 77.7021 205.706 97.8017 214.453C117.901 223.199 139.723 228.016 162.088 228.367C164.126 225.762 165.597 223.438 166.577 221.196C167.98 217.954 168.373 214.898 168.045 211.48L168.03 211.491Z" fill="url(#paint3_radial_254_119)"/>
<path d="M174.427 80.2938L159.059 73.6162L143.69 66.9386C132.757 88.1174 105.512 135.288 70.4818 156.265C93.6876 180.362 125.543 194.233 159.004 194.768C150.471 154.828 166.402 102.743 174.439 80.3082L174.427 80.2938Z" fill="url(#paint4_linear_254_119)"/>
<path style="mix-blend-mode:multiply" d="M174.426 80.2933L153.562 71.218L105.455 181.824C121.967 189.969 140.231 194.46 158.991 194.753C150.459 154.813 166.39 102.729 174.426 80.2933Z" fill="url(#paint5_linear_254_119)"/>
<path style="mix-blend-mode:multiply" d="M160.985 128.453C164.901 108.649 170.569 91.0636 174.427 80.2938L143.704 66.9274C138.453 77.0954 129.459 93.2283 117.643 109.595L160.999 128.442L160.985 128.453Z" fill="url(#paint6_radial_254_119)"/>
<path d="M177.557 76.3308L163.12 64.56L163.163 64.5264L163.05 64.4993L162.994 64.4274L162.948 64.4867L144.493 61.946C144.493 61.946 134.481 58.6751 132.444 63.3582C129.609 69.8645 145.388 80.0354 154.626 83.8856C163.723 88.0301 181.935 92.6319 184.759 86.1112C186.796 81.4282 177.583 76.3341 177.583 76.3341L177.557 76.3308Z" fill="url(#paint7_linear_254_119)"/>
<path d="M163.036 64.5109L163.024 64.4966L163.028 64.4711L163.053 64.4742L163.036 64.5109Z" fill="url(#paint8_linear_254_119)"/>
<path d="M184.734 86.1078C181.898 92.6142 163.687 88.0123 154.6 83.8822C145.374 80.0464 129.595 69.8755 132.419 63.3548C133.493 60.8773 136.785 60.6241 139.668 60.9434C139.55 61.0586 139.469 61.1914 139.409 61.3529C137.754 65.1611 150.699 72.7325 158.104 75.8613C165.425 79.1484 179.802 83.4555 181.458 79.6473C181.528 79.5002 181.573 79.3498 181.566 79.1931C183.748 81.0751 185.805 83.6559 184.73 86.1334L184.734 86.1078Z" fill="url(#paint9_linear_254_119)"/>
<path style="mix-blend-mode:multiply" d="M184.53 82.524C186.297 78.4439 176.583 70.2738 162.791 64.2859C149.014 58.2867 136.398 56.7445 134.63 60.8246C132.863 64.9046 142.997 72.1007 156.789 78.0887C170.566 84.0879 182.752 86.5896 184.53 82.524Z" fill="url(#paint10_radial_254_119)"/>
<path d="M200.883 59.6414C208.173 42.8941 200.491 23.3895 183.744 16.0988C166.997 8.80819 147.492 16.4902 140.202 33.2375C132.911 49.9848 142.322 65.5085 159.083 72.7879C175.831 80.0786 193.592 76.3887 200.883 59.6414Z" fill="url(#paint11_radial_254_119)"/>
<defs>
<linearGradient id="paint0_linear_254_119" x1="136.29" y1="234.291" x2="81.4791" y2="157.616" gradientUnits="userSpaceOnUse">
<stop stop-color="#262626"/>
<stop offset="1" stop-color="#4B4A49"/>
</linearGradient>
<linearGradient id="paint1_linear_254_119" x1="126.45" y1="254.663" x2="69.0025" y2="150.418" gradientUnits="userSpaceOnUse">
<stop stop-color="#262626"/>
<stop offset="1" stop-color="#4B4A49"/>
</linearGradient>
<radialGradient id="paint2_radial_254_119" cx="0" cy="0" r="1" gradientUnits="userSpaceOnUse" gradientTransform="translate(108.6 208.841) rotate(23.5153) scale(94.379 20.7634)">
<stop stop-color="#A6A6A6"/>
<stop offset="0.03" stop-color="#AAAAAA"/>
<stop offset="0.31" stop-color="#CECECE"/>
<stop offset="0.58" stop-color="#E9E9E9"/>
<stop offset="0.82" stop-color="#F9F9F9"/>
<stop offset="1" stop-color="white"/>
</radialGradient>
<radialGradient id="paint3_radial_254_119" cx="0" cy="0" r="1" gradientUnits="userSpaceOnUse" gradientTransform="translate(122.659 178.99) rotate(23.5153) scale(83.787 21.7846)">
<stop/>
<stop offset="0.11" stop-color="#131313"/>
<stop offset="0.33" stop-color="#474747"/>
<stop offset="0.64" stop-color="#999999"/>
<stop offset="1" stop-color="white"/>
</radialGradient>
<linearGradient id="paint4_linear_254_119" x1="187.386" y1="179.642" x2="109.139" y2="105.971" gradientUnits="userSpaceOnUse">
<stop stop-color="#262626"/>
<stop offset="1" stop-color="#4B4A49"/>
</linearGradient>
<linearGradient id="paint5_linear_254_119" x1="173.132" y1="142.763" x2="130.079" y2="127.25" gradientUnits="userSpaceOnUse">
<stop stop-color="#262626"/>
<stop offset="1" stop-color="white"/>
</linearGradient>
<radialGradient id="paint6_radial_254_119" cx="0" cy="0" r="1" gradientUnits="userSpaceOnUse" gradientTransform="translate(157.527 79.0186) rotate(23.5153) scale(39.1954 21.5575)">
<stop stop-color="#A6A6A6"/>
<stop offset="0.03" stop-color="#AAAAAA"/>
<stop offset="0.31" stop-color="#CECECE"/>
<stop offset="0.58" stop-color="#E9E9E9"/>
<stop offset="0.82" stop-color="#F9F9F9"/>
<stop offset="1" stop-color="white"/>
</radialGradient>
<linearGradient id="paint7_linear_254_119" x1="164.613" y1="92.7119" x2="149.269" y2="48.3799" gradientUnits="userSpaceOnUse">
<stop stop-color="#262626"/>
<stop offset="1" stop-color="#4B4A49"/>
</linearGradient>
<linearGradient id="paint8_linear_254_119" x1="162.966" y1="64.5589" x2="162.983" y2="64.5662" gradientUnits="userSpaceOnUse">
<stop stop-color="#F9F9F9"/>
<stop offset="0.43" stop-color="#F5F4F4"/>
<stop offset="0.92" stop-color="#ECE8E6"/>
<stop offset="1" stop-color="#EAE6E4"/>
</linearGradient>
<linearGradient id="paint9_linear_254_119" x1="164.966" y1="88.6106" x2="144.503" y2="45.8087" gradientUnits="userSpaceOnUse">
<stop stop-color="#262626"/>
<stop offset="0.47" stop-color="#343434"/>
<stop offset="1" stop-color="#4B4A49"/>
</linearGradient>
<radialGradient id="paint10_radial_254_119" cx="0" cy="0" r="1" gradientUnits="userSpaceOnUse" gradientTransform="translate(158.991 72.9214) rotate(23.5152) scale(26.3247 7.89742)">
<stop stop-color="#262626"/>
<stop offset="0.12" stop-color="#494949"/>
<stop offset="0.35" stop-color="#898989"/>
<stop offset="0.57" stop-color="#BBBBBB"/>
<stop offset="0.75" stop-color="#E0E0E0"/>
<stop offset="0.9" stop-color="#F6F6F6"/>
<stop offset="1" stop-color="white"/>
</radialGradient>
<radialGradient id="paint11_radial_254_119" cx="0" cy="0" r="1" gradientUnits="userSpaceOnUse" gradientTransform="translate(161.586 31.3133) rotate(23.5153) scale(40.4898 40.4898)">
<stop stop-color="#4B4A49"/>
<stop offset="0.32" stop-color="#444342"/>
<stop offset="0.78" stop-color="#313130"/>
<stop offset="1" stop-color="#262626"/>
</radialGradient>
</defs>
</svg>
