<svg width="205" height="261" viewBox="0 0 205 261" fill="none" xmlns="http://www.w3.org/2000/svg">
<path d="M167.005 165.111L166.905 165.209C166.905 165.209 166.767 165.207 166.708 165.207C134.596 192.007 93.1597 204.96 51.4857 201.193C51.4857 201.193 55.7404 145.548 44.4833 87.4473L108.034 67.5956C131.842 121.787 167.005 165.111 167.005 165.111Z" fill="url(#paint0_linear_254_60)"/>
<path style="mix-blend-mode:multiply" d="M51.3765 143.671C53.3731 176.911 51.5058 201.213 51.5058 201.213C93.16 204.98 134.616 192.027 166.728 165.227C166.787 165.227 166.847 165.228 166.926 165.229L167.025 165.131C167.025 165.131 151.668 146.214 134.388 117.745L51.3765 143.671Z" fill="url(#paint1_radial_254_60)"/>
<path d="M52.0154 191.208C51.7977 197.562 51.5067 201.211 51.5067 201.211C93.1608 204.979 134.617 192.025 166.729 165.226C166.788 165.226 166.847 165.227 166.926 165.227L167.026 165.13C167.026 165.13 164.704 162.265 160.864 157.097C130.115 181.659 91.2919 193.828 52.0352 191.208L52.0154 191.208Z" fill="url(#paint2_linear_254_60)"/>
<path style="mix-blend-mode:multiply" d="M128.156 110.877C120.528 95.0333 113.484 79.9848 108.034 67.5963L44.5038 87.4482C47.083 100.737 49.8503 117.108 52.5884 134.484L128.156 110.877Z" fill="url(#paint3_linear_254_60)"/>
<path d="M202.942 203.921C201.518 214.685 176.721 234.112 129.622 248.828C90.3632 261.092 51.0563 261.689 43.7495 253.646C40.4674 250.022 41.276 245.904 42.9847 242.624C70.8919 245.176 98.7139 242.122 124.946 233.94C151.178 225.739 175.799 212.429 197.287 194.432C197.287 194.432 197.288 194.425 197.288 194.412C200.568 196.141 203.58 199.051 202.942 203.921Z" fill="url(#paint4_linear_254_60)"/>
<path style="mix-blend-mode:multiply" d="M181.294 226.26C194.935 217.723 202.216 209.619 202.961 203.922C203.599 199.072 200.586 196.142 197.306 194.413C197.306 194.413 197.306 194.42 197.306 194.433C175.818 212.43 151.196 225.74 124.964 233.941C98.7321 242.143 70.9103 245.197 43.0033 242.625C41.2945 245.905 40.4859 250.023 43.768 253.647C46.4639 256.633 53.5534 258.417 63.3992 258.865C84.1291 256.395 110.061 250.718 137.599 242.134C153.338 237.209 168.115 231.821 181.314 226.26L181.294 226.26Z" fill="url(#paint5_radial_254_60)"/>
<path d="M195.668 183.956C196.588 186.886 197.108 190.286 197.286 194.433C175.818 212.411 151.176 225.74 124.945 233.922C98.7128 242.123 70.8908 245.178 42.9836 242.625C40.7861 239.111 39.2756 236.017 38.3556 233.087C37.0333 228.87 36.9712 225.001 37.8399 220.784C40.2579 209.26 50.4334 201.933 51.4865 201.193C93.1407 204.961 134.597 192.007 166.709 165.207C166.768 165.208 166.827 165.209 166.926 165.209C169.018 165.229 180.896 165.775 189.074 173.551C192.185 176.521 194.345 179.739 195.648 183.956L195.668 183.956Z" fill="url(#paint6_linear_254_60)"/>
<path style="mix-blend-mode:multiply" d="M37.8581 220.805C36.9893 225.021 37.0516 228.89 38.3739 233.107C39.2938 236.037 40.8044 239.131 43.0019 242.645C70.9091 245.198 98.7309 242.144 124.963 233.942C151.195 225.741 175.817 212.431 197.305 194.434C197.107 190.287 196.586 186.886 195.686 183.957C194.364 179.74 192.223 176.522 189.112 173.551C180.562 165.437 168.01 165.2 166.747 165.188C134.655 192.008 93.1987 204.962 51.5447 201.174C50.5115 201.895 40.316 209.241 37.8978 220.785L37.8581 220.805Z" fill="url(#paint7_radial_254_60)"/>
<path d="M28.2372 89.6033C28.3754 89.6046 28.5334 89.6061 28.6713 89.6271C34.1953 89.9555 39.7491 89.1985 45.0353 87.5309L107.873 67.9093C113.139 66.2613 118.117 63.7618 122.452 60.368C122.572 60.2704 122.691 60.1728 122.81 60.095C127.404 56.4667 129.219 50.3646 127.475 44.7816L113.812 1.04862L92.3914 7.73601L97.1436 22.9406L84.1168 27.0027L79.3646 11.7981L36.5423 25.1731L41.2945 40.3777L28.2678 44.4398L23.5154 29.2352L2.09441 35.9226L15.7569 79.6556C17.5008 85.2188 22.4575 89.1936 28.2572 89.5837L28.2372 89.6033Z" fill="url(#paint8_linear_254_60)"/>
<path d="M13.4762 72.4485L15.7375 79.6747C17.4814 85.2379 22.4379 89.2127 28.2377 89.6029C28.3758 89.6042 28.5338 89.6056 28.6718 89.6267C34.1957 89.955 39.7496 89.198 45.0357 87.5304L107.873 67.9089C113.14 66.2609 118.118 63.7613 122.453 60.3675C122.572 60.2699 122.692 60.1724 122.811 60.0945C127.405 56.4662 129.219 50.3641 127.475 44.7812L125.214 37.555L13.4563 72.4681L13.4762 72.4485Z" fill="url(#paint9_linear_254_60)"/>
<path style="mix-blend-mode:multiply" d="M119.893 20.3379L8.15039 55.25L14.0662 74.1846L125.809 39.2725L119.893 20.3379Z" fill="url(#paint10_linear_254_60)"/>
<defs>
<linearGradient id="paint0_linear_254_60" x1="36.6998" y1="134.202" x2="123.2" y2="135.336" gradientUnits="userSpaceOnUse">
<stop stop-color="#F9F9F9"/>
<stop offset="0.49" stop-color="#EFEDEC"/>
<stop offset="1" stop-color="#EAE6E4"/>
</linearGradient>
<radialGradient id="paint1_radial_254_60" cx="0" cy="0" r="1" gradientUnits="userSpaceOnUse" gradientTransform="translate(143.967 191.818) rotate(-17.3406) scale(158.323 56.9962)">
<stop stop-color="#A6A6A6"/>
<stop offset="0.11" stop-color="#B7B7B7"/>
<stop offset="0.35" stop-color="#D6D6D6"/>
<stop offset="0.58" stop-color="#ECECEC"/>
<stop offset="0.8" stop-color="#FAFAFA"/>
<stop offset="1" stop-color="white"/>
</radialGradient>
<linearGradient id="paint2_linear_254_60" x1="45.078" y1="178.711" x2="125.661" y2="179.77" gradientUnits="userSpaceOnUse">
<stop stop-color="#F9F9F9"/>
<stop offset="0.49" stop-color="#EFEDEC"/>
<stop offset="1" stop-color="#EAE6E4"/>
</linearGradient>
<linearGradient id="paint3_linear_254_60" x1="72.5833" y1="66.009" x2="86.1027" y2="109.307" gradientUnits="userSpaceOnUse">
<stop stop-color="#A6A6A6"/>
<stop offset="0.03" stop-color="#AAAAAA"/>
<stop offset="0.31" stop-color="#CECECE"/>
<stop offset="0.58" stop-color="#E9E9E9"/>
<stop offset="0.82" stop-color="#F9F9F9"/>
<stop offset="1" stop-color="white"/>
</linearGradient>
<linearGradient id="paint4_linear_254_60" x1="58.734" y1="254.432" x2="201.043" y2="209.997" gradientUnits="userSpaceOnUse">
<stop stop-color="#F4F3F2"/>
<stop offset="0.37" stop-color="#EEEBEA"/>
<stop offset="0.56" stop-color="#EAE6E4"/>
<stop offset="1" stop-color="#D1CFCD"/>
</linearGradient>
<radialGradient id="paint5_radial_254_60" cx="0" cy="0" r="1" gradientUnits="userSpaceOnUse" gradientTransform="translate(129.948 217.799) rotate(-17.3406) scale(118.254 26.0158)">
<stop stop-color="#A6A6A6"/>
<stop offset="0.03" stop-color="#AAAAAA"/>
<stop offset="0.31" stop-color="#CECECE"/>
<stop offset="0.58" stop-color="#E9E9E9"/>
<stop offset="0.82" stop-color="#F9F9F9"/>
<stop offset="1" stop-color="white"/>
</radialGradient>
<linearGradient id="paint6_linear_254_60" x1="24.6317" y1="237.538" x2="180.055" y2="189.008" gradientUnits="userSpaceOnUse">
<stop stop-color="#F4F3F2"/>
<stop offset="0.37" stop-color="#EEEBEA"/>
<stop offset="0.56" stop-color="#EAE6E4"/>
<stop offset="1" stop-color="#D1CFCD"/>
</linearGradient>
<radialGradient id="paint7_radial_254_60" cx="0" cy="0" r="1" gradientUnits="userSpaceOnUse" gradientTransform="translate(101.101 186.514) rotate(-17.1006) scale(100.509 42.2136)">
<stop stop-color="#A6A6A6"/>
<stop offset="0.11" stop-color="#B7B7B7"/>
<stop offset="0.35" stop-color="#D6D6D6"/>
<stop offset="0.58" stop-color="#ECECEC"/>
<stop offset="0.8" stop-color="#FAFAFA"/>
<stop offset="1" stop-color="white"/>
</radialGradient>
<linearGradient id="paint8_linear_254_60" x1="-60.4215" y1="-12.2732" x2="97.8985" y2="57.8136" gradientUnits="userSpaceOnUse">
<stop stop-color="#F9F9F9"/>
<stop offset="0.49" stop-color="#EFEDEC"/>
<stop offset="1" stop-color="#EAE6E4"/>
</linearGradient>
<linearGradient id="paint9_linear_254_60" x1="-66.235" y1="0.894142" x2="92.0791" y2="70.962" gradientUnits="userSpaceOnUse">
<stop stop-color="#F9F9F9"/>
<stop offset="0.49" stop-color="#EFEDEC"/>
<stop offset="1" stop-color="#EAE6E4"/>
</linearGradient>
<linearGradient id="paint10_linear_254_60" x1="73.5999" y1="68.5503" x2="64.1699" y2="38.368" gradientUnits="userSpaceOnUse">
<stop stop-color="#A6A6A6"/>
<stop offset="0.02" stop-color="#AAAAAA"/>
<stop offset="0.19" stop-color="#C8C8C8"/>
<stop offset="0.36" stop-color="#E0E0E0"/>
<stop offset="0.55" stop-color="#F1F1F1"/>
<stop offset="0.75" stop-color="#FBFBFB"/>
<stop offset="1" stop-color="white"/>
</linearGradient>
</defs>
</svg>
